<?xml version="1.0" encoding="utf-8"?>
<!-- Generator: Adobe Illustrator 24.2.0, SVG Export Plug-In . SVG Version: 6.00 Build 0)  -->
<svg version="1.1" id="Layer_1" xmlns="http://www.w3.org/2000/svg" xmlns:xlink="http://www.w3.org/1999/xlink" x="0px" y="0px"
	 viewBox="0 0 94 103" style="enable-background:new 0 0 94 103;" xml:space="preserve">
<style type="text/css">
	.st0{fill:#FF4361;}
	.st1{fill:#424DC6;}
	.st2{fill-rule:evenodd;clip-rule:evenodd;fill:#FFFFFF;}
</style>
<path id="Rounded_Rectangle_528" class="st0" d="M46.5,16L46.5,16C61.1,16,73,27.9,73,42.5l0,0C73,57.1,61.1,69,46.5,69l0,0
	C31.9,69,20,57.1,20,42.5l0,0C20,27.9,31.9,16,46.5,16z"/>
<g id="Rounded_Rectangle_528_copy">
	
		<image style="overflow:visible;opacity:0.75;" width="100" height="100" xlink:href="EA9092FE.png"  transform="matrix(1 0 0 1 -4 -8)">
	</image>
	<g>
		<path class="st1" d="M41,0h10c16.6,0,30,13.4,30,30v10c0,16.6-13.4,30-30,30H41c-16.6,0-30-13.4-30-30V30C11,13.4,24.4,0,41,0z"/>
	</g>
</g>
<path id="Forma_1" class="st2" d="M63.5,30.9c0,0.1,0,0.2,0,0.3l-2.3,9.2c-0.1,0.5-0.5,0.8-1,0.8l-13.7,0.1H32.8
	c-0.5,0-0.9-0.3-1-0.8l-2.3-9.2c0-0.1,0-0.2,0-0.3c-1.1-0.4-1.8-1.6-1.4-2.7s1.6-1.8,2.7-1.4s1.8,1.6,1.4,2.7
	c-0.1,0.4-0.4,0.8-0.7,1l2.9,2.9c1.5,1.5,3.9,1.5,5.5,0c0.1-0.1,0.3-0.3,0.4-0.4l4.7-6.3c-0.9-0.9-0.9-2.2,0-3.1s2.2-0.9,3.1,0
	c0.8,0.8,0.9,2.2,0,3.1l0,0l4.7,6.3c0.7,1,1.9,1.6,3.1,1.6c1,0,2-0.4,2.7-1.1l2.9-2.9c-0.9-0.8-1.1-2.1-0.3-3.1
	c0.8-0.9,2.1-1.1,3.1-0.3c0.9,0.8,1.1,2.1,0.3,3.1C64.3,30.5,63.9,30.7,63.5,30.9z M61,44.5c0-0.6-0.5-1-1-1l0,0H33.1
	c-0.6,0-1,0.5-1,1l0,0V47c0,0.6,0.5,1,1,1H60c0.6,0,1-0.5,1-1l0,0V44.5z"/>
</svg>
