<?xml version="1.0" encoding="utf-8"?>
<!-- Generator: Adobe Illustrator 24.2.0, SVG Export Plug-In . SVG Version: 6.00 Build 0)  -->
<svg version="1.1" id="Layer_1" xmlns="http://www.w3.org/2000/svg" xmlns:xlink="http://www.w3.org/1999/xlink" x="0px" y="0px"
	 viewBox="0 0 94 103" style="enable-background:new 0 0 94 103;" xml:space="preserve">
<style type="text/css">
	.st0{fill:#FF4361;}
	.st1{fill:#424DC6;}
	.st2{fill-rule:evenodd;clip-rule:evenodd;fill:#FFFFFF;}
</style>
<path id="Rounded_Rectangle_528" class="st0" d="M46.5,16L46.5,16C61.1,16,73,27.9,73,42.5l0,0C73,57.1,61.1,69,46.5,69l0,0
	C31.9,69,20,57.1,20,42.5l0,0C20,27.9,31.9,16,46.5,16z"/>
<g id="Rounded_Rectangle_528_copy">
	
		<image style="overflow:visible;opacity:0.75;" width="100" height="100" xlink:href="30823EB7.png"  transform="matrix(1 0 0 1 -4 -8)">
	</image>
	<g>
		<path class="st1" d="M41,0h10c16.6,0,30,13.4,30,30v10c0,16.6-13.4,30-30,30H41c-16.6,0-30-13.4-30-30V30C11,13.4,24.4,0,41,0z"/>
	</g>
</g>
<path id="Forma_1" class="st2" d="M49.8,39.9c0,0.3-0.1,0.6-0.3,0.8C49.2,40.8,49,41,48.7,41h-5.4c-0.3,0-0.6-0.1-0.8-0.3
	s-0.3-0.5-0.3-0.8v-2.7H31v8.1c0,0.7,0.3,1.4,0.8,1.9S33,48,33.7,48h24.6c0.7,0,1.4-0.3,1.9-0.8S61,46,61,45.3v-8.1H49.8V39.9
	L49.8,39.9z M43.9,37.2h4.3v2.2h-4.3V37.2z M60.2,27.1c-0.5-0.5-1.2-0.8-1.9-0.8h-5.9v-2.7c0-0.4-0.2-0.8-0.5-1.2
	c-0.3-0.3-0.7-0.5-1.1-0.5h-9.6c-0.4,0-0.8,0.2-1.1,0.5s-0.5,0.7-0.5,1.2v2.7h-5.9c-0.7,0-1.4,0.3-1.9,0.8S31,28.3,31,29v6.5h30V29
	C61,28.3,60.7,27.6,60.2,27.1z M50.3,26.3h-8.6v-2.2h8.6C50.3,24.1,50.3,26.3,50.3,26.3z"/>
</svg>
