<?xml version="1.0" encoding="utf-8"?>
<!-- Generator: Adobe Illustrator 24.2.0, SVG Export Plug-In . SVG Version: 6.00 Build 0)  -->
<svg version="1.1" id="Layer_1" xmlns="http://www.w3.org/2000/svg" xmlns:xlink="http://www.w3.org/1999/xlink" x="0px" y="0px"
	 viewBox="0 0 94 103" style="enable-background:new 0 0 94 103;" xml:space="preserve">
<style type="text/css">
	.st0{fill:#FF4361;}
	.st1{fill:#424DC6;}
	.st2{fill-rule:evenodd;clip-rule:evenodd;fill:#FEFAFC;}
</style>
<path id="Rounded_Rectangle_528" class="st0" d="M46.5,16L46.5,16C61.1,16,73,27.9,73,42.5l0,0C73,57.1,61.1,69,46.5,69l0,0
	C31.9,69,20,57.1,20,42.5l0,0C20,27.9,31.9,16,46.5,16z"/>
<g id="Rounded_Rectangle_528_copy">
	
		<image style="overflow:visible;opacity:0.75;" width="100" height="100" xlink:href="A49EE74A.png"  transform="matrix(1 0 0 1 -4 -8)">
	</image>
	<g>
		<path class="st1" d="M41,0h10c16.6,0,30,13.4,30,30v10c0,16.6-13.4,30-30,30H41c-16.6,0-30-13.4-30-30V30C11,13.4,24.4,0,41,0z"/>
	</g>
</g>
<path id="Forma_1" class="st2" d="M59.1,22H35.9c-1.6,0-2.9,1.3-2.9,2.9l0,0V51l5.8-5.8h20.3c1.6,0,2.9-1.3,2.9-2.9V24.9
	C62,23.3,60.7,22,59.1,22z"/>
</svg>
