<?xml version="1.0" encoding="utf-8"?>
<!-- Generator: Adobe Illustrator 24.2.0, SVG Export Plug-In . SVG Version: 6.00 Build 0)  -->
<svg version="1.1" id="Layer_1" xmlns="http://www.w3.org/2000/svg" xmlns:xlink="http://www.w3.org/1999/xlink" x="0px" y="0px"
	 viewBox="0 0 50 50" style="enable-background:new 0 0 50 50;" xml:space="preserve">
<style type="text/css">
	.st0{fill:#FFFFFF;stroke:#FFFFFF;stroke-miterlimit:10;}
</style>
<path class="st0" d="M43.3,1H6.7C3.5,1,1,3.5,1,6.7v36.6C1,46.5,3.5,49,6.7,49h36.6c3.2,0,5.7-2.5,5.7-5.7V6.7C49,3.5,46.5,1,43.3,1
	z M15.9,19.3V41H9V19.3H15.9z M9,13c0-1.6,1.4-2.9,3.4-2.9s3.3,1.3,3.4,2.9c0,1.6-1.3,2.9-3.4,2.9C10.4,15.9,9,14.6,9,13z M41,41
	h-6.9c0,0,0-10.6,0-11.4c0-2.3-1.1-4.6-4-4.6H30c-2.7,0-3.9,2.3-3.9,4.6c0,1,0,11.4,0,11.4h-6.9V19.3h6.9v3c0,0,2.2-3,6.6-3
	c4.6,0,8.2,3.1,8.2,9.5V41z"/>
</svg>
