<svg
        width="390"
        height="90"
        viewBox="0 0 410 90"
        fill="none"
        xmlns="http://www.w3.org/2000/svg"
      >
        <path
          d="M206.845 12.4363C207.822 12.4363 208.615 11.6437 208.615 10.666V2.77029C208.615 1.7926 207.822 1 206.845 1C205.867 1 205.074 1.7926 205.074 2.77029V10.666C205.074 11.6437 205.867 12.4363 206.845 12.4363Z"
          fill="#1E3D71"
        ></path>
        <path
          d="M250.115 61.8181L246.987 58.6995C245.875 57.5884 244.392 56.9763 242.812 56.9763C241.802 56.9763 240.832 57.2277 239.973 57.6986L234.08 51.8124L234.367 51.5257C236.757 49.1302 236.757 45.2375 234.366 42.85C233.512 41.9943 232.447 41.4237 231.285 41.1836C231.445 40.6315 231.529 40.0532 231.529 39.4613C231.529 37.8169 230.89 36.2749 229.734 35.1234C228.88 34.2677 227.814 33.6971 226.652 33.457C226.812 32.9049 226.896 32.3267 226.896 31.7347C226.896 30.0901 226.258 28.5483 225.099 27.395C224.225 26.5214 223.15 25.9684 222.02 25.733C222.624 23.6505 222.108 21.3075 220.47 19.6664C219.106 18.3085 217.256 17.7249 215.473 17.9141L203.795 15.7036C202.014 15.3658 199.789 15.1423 198.385 16.4229C198.297 16.5038 198.207 16.5967 198.118 16.7003C195.941 15.9068 193.402 16.3793 191.658 18.1206C190.502 19.2757 189.865 20.8169 189.865 22.4605C189.865 23.0525 189.949 23.6306 190.109 24.1829C188.948 24.4229 187.884 24.9928 187.032 25.8457C185.874 26.9997 185.235 28.5392 185.234 30.1808C185.233 30.7742 185.317 31.3543 185.478 31.908C184.317 32.1474 183.252 32.7162 182.398 33.5691C181.239 34.7267 180.601 36.2688 180.601 37.9115C180.601 39.1697 180.977 40.3683 181.673 41.3808C180.794 41.6788 179.989 42.1747 179.315 42.8481C176.922 45.2375 176.921 49.1303 179.316 51.5294L179.602 51.8142L173.708 57.6974C171.518 56.6661 168.819 57.0525 167.012 58.8577L163.882 61.9782C162.769 63.0898 162.156 64.5727 162.156 66.1535C162.156 67.7345 162.769 69.2176 163.882 70.3294L167.788 74.23C168.479 74.921 169.6 74.9203 170.291 74.2286C170.982 73.5369 170.981 72.4159 170.29 71.7251L166.384 67.8245C165.941 67.3817 165.697 66.7883 165.697 66.1537C165.697 65.5193 165.941 64.926 166.383 64.4843L169.513 61.3637C170.295 60.5827 171.491 60.4663 172.4 61.0096C172.464 61.1058 172.538 61.1972 172.623 61.2821C172.774 61.4341 172.948 61.5507 173.132 61.6359L191.078 79.5556C191.163 79.7414 191.28 79.9163 191.433 80.0692C191.581 80.2181 191.751 80.3333 191.931 80.418C192.31 80.8471 192.52 81.3952 192.52 81.9798C192.52 82.6144 192.276 83.2076 191.833 83.6504L188.706 86.773C187.783 87.6927 186.28 87.6925 185.359 86.7758L181.454 82.8701C180.763 82.1788 179.642 82.1788 178.95 82.8701C178.259 83.5615 178.259 84.6823 178.95 85.3736L182.859 89.2821C184.009 90.4277 185.52 91.0002 187.031 91.0002C188.543 91.0002 190.055 90.4268 191.207 89.2802L194.335 86.1557C195.448 85.0439 196.061 83.561 196.061 81.9798C196.061 80.8515 195.747 79.7739 195.164 78.8447L201.797 72.2196C201.804 72.2123 201.811 72.2051 201.818 72.1979C202.578 71.4127 204.693 71.5597 206.739 71.7017C208.192 71.8028 209.812 71.9151 211.395 71.7326L218.659 78.988C218.189 79.846 217.938 80.8146 217.938 81.8232C217.938 83.4026 218.551 84.8846 219.664 85.9964L222.792 89.1209C223.904 90.232 225.387 90.8441 226.967 90.8441C228.547 90.8441 230.029 90.2322 231.142 89.1209L250.116 70.1699C251.229 69.0583 251.842 67.5754 251.842 65.9944C251.842 64.4136 251.229 62.9307 250.115 61.8181ZM203.135 19.1823L210.815 20.6359L206.218 25.2306C205.507 24.8889 204.533 24.2515 203.464 23.2288C202 21.8289 200.953 20.2126 200.858 19.2045C200.858 19.2039 200.858 19.2034 200.858 19.2029C200.858 19.2027 200.858 19.2025 200.858 19.2024C200.851 19.1299 200.849 19.0721 200.85 19.028C201.082 18.9717 201.696 18.9093 203.135 19.1823ZM194.16 20.6257C195.057 19.7297 196.45 19.6263 197.464 20.3126C198.038 22.7204 200.092 24.9028 201.016 25.7869C201.701 26.4423 203.898 28.407 206.117 28.947C206.417 29.3771 206.58 29.8899 206.58 30.4309C206.58 31.1279 206.312 31.7795 205.823 32.2675C205.336 32.7554 204.684 33.024 203.985 33.024C203.287 33.024 202.634 32.7554 202.145 32.2652L202.145 32.265L202.144 32.2641L194.16 24.2949C193.673 23.8089 193.405 23.1573 193.405 22.4605C193.406 21.7635 193.674 21.1119 194.16 20.6257ZM189.535 28.3507C190.022 27.8629 190.674 27.5942 191.371 27.5942C192.069 27.5942 192.723 27.8634 193.213 28.3532L199.642 34.769C200.654 35.7829 200.654 37.4328 199.645 38.4432C199.156 38.931 198.501 39.1996 197.801 39.1996C197.102 39.1996 196.447 38.931 195.959 38.4453L195.959 38.4451L191.082 33.5691C191.074 33.5616 191.066 33.5545 191.058 33.5468L189.533 32.0217C189.043 31.5327 188.774 30.8799 188.774 30.1834C188.775 29.4892 189.043 28.8397 189.535 28.3507ZM184.9 36.0742C185.387 35.5875 186.041 35.3194 186.74 35.3194C187.433 35.3194 188.081 35.5836 188.567 36.0619L193.458 40.9516C193.946 41.4375 194.215 42.0884 194.215 42.7845C194.215 43.4804 193.946 44.1313 193.457 44.6191C192.969 45.1057 192.317 45.3737 191.619 45.3737C190.92 45.3737 190.265 45.1049 189.777 44.6191L188.003 42.8477C188.003 42.8472 188.002 42.8469 188.002 42.8465L184.9 39.7482C184.411 39.2597 184.142 38.6072 184.142 37.9111C184.142 37.2152 184.411 36.5625 184.9 36.0742ZM181.817 45.353C182.306 44.864 182.96 44.5947 183.659 44.5947C184.357 44.5947 185.011 44.8638 185.501 45.3524L187.276 47.1263C187.764 47.6121 188.033 48.263 188.033 48.9591C188.033 49.6552 187.764 50.306 187.273 50.7957C186.786 51.2835 186.133 51.5523 185.435 51.5523C184.736 51.5523 184.084 51.2837 183.593 50.7922L183.371 50.5707C183.368 50.5677 183.365 50.5645 183.363 50.5617C183.359 50.5586 183.356 50.5558 183.352 50.5526L181.818 49.0245C180.806 48.0101 180.805 46.3632 181.817 45.353ZM217.893 65.4725C217.202 64.7807 216.081 64.7801 215.389 65.471L213.814 67.044C212.318 68.5406 209.606 68.3522 206.984 68.1703C204.136 67.9723 201.191 67.7681 199.285 69.7245L192.765 76.2372L176.459 59.9551L182.229 54.195C183.183 54.7796 184.284 55.093 185.435 55.093C187.08 55.093 188.623 54.4553 189.775 53.3009C190.935 52.1457 191.574 50.6039 191.574 48.9593C191.574 48.944 191.573 48.9289 191.573 48.9136C191.588 48.9138 191.604 48.9147 191.619 48.9147C193.262 48.9147 194.803 48.2789 195.957 47.1264C197.117 45.9712 197.756 44.4292 197.756 42.7848C197.756 42.7695 197.755 42.7544 197.755 42.7391C197.77 42.7391 197.786 42.7402 197.802 42.7402C199.444 42.7402 200.986 42.1051 202.148 40.9483C203.354 39.7405 203.95 38.1503 203.939 36.5636C203.954 36.5637 203.97 36.5646 203.986 36.5646C205.631 36.5644 207.174 35.9269 208.328 34.7708C209.484 33.6157 210.121 32.0745 210.121 30.4309C210.121 29.2815 209.809 28.1827 209.226 27.2308L214.284 22.1752C214.661 21.7999 215.125 21.5643 215.612 21.4671C215.665 21.4615 215.717 21.4531 215.769 21.4429C216.55 21.3351 217.371 21.5763 217.969 22.1715C218.981 23.1856 218.981 24.8354 217.972 25.8458L216.432 27.3799C216.427 27.385 216.421 27.3895 216.416 27.3946L214.642 29.1658C213.95 29.8566 213.949 30.9776 214.64 31.6693C215.332 32.3612 216.452 32.3617 217.144 31.6709L218.69 30.1265C218.691 30.1261 218.691 30.1258 218.692 30.1254L218.925 29.8925C219.94 28.8867 221.585 28.8888 222.599 29.9015C223.087 30.3873 223.356 31.0382 223.356 31.7343C223.356 32.4302 223.087 33.0812 222.595 33.5709L221.046 35.1232C221.046 35.1234 221.046 35.1236 221.046 35.1239L219.272 36.8907C218.579 37.5806 218.577 38.7016 219.267 39.3942C219.956 40.0869 221.077 40.089 221.77 39.3993L223.552 37.6244C224.039 37.1364 224.692 36.8678 225.39 36.8678C226.088 36.8678 226.741 37.1364 227.232 37.6279C227.72 38.114 227.988 38.7649 227.988 39.461C227.988 40.1569 227.72 40.8078 227.229 41.2965L224.141 44.3862C223.449 45.0777 223.45 46.1985 224.141 46.8897C224.487 47.2352 224.94 47.4079 225.392 47.4079C225.846 47.4079 226.299 47.2349 226.644 46.8891L228.158 45.375C228.167 45.3667 228.176 45.3595 228.185 45.3509C228.672 44.8629 229.324 44.5943 230.023 44.5943C230.721 44.5943 231.374 44.8629 231.862 45.3526C232.874 46.3628 232.873 48.0099 231.862 49.0221L230.324 50.5593C230.323 50.5598 230.322 50.5603 230.322 50.5608C230.321 50.5614 230.321 50.5621 230.32 50.5626L227.878 53.0023C227.186 53.6933 227.185 54.8142 227.876 55.5059C228.222 55.852 228.675 56.0252 229.129 56.0252C229.581 56.0252 230.034 55.8526 230.38 55.5075L231.574 54.3141L237.301 60.0339L220.996 76.3186L215.154 70.4837C215.562 70.2218 215.951 69.9138 216.317 69.548L217.891 67.9758C218.583 67.2852 218.584 66.1642 217.893 65.4725ZM247.614 67.6649L228.64 86.6159C228.196 87.0592 227.602 87.3033 226.967 87.3033C226.332 87.3033 225.738 87.0592 225.294 86.6157L222.165 83.4912C221.722 83.0486 221.478 82.4562 221.478 81.8232C221.478 81.1904 221.722 80.598 222.165 80.1552L241.139 61.2042C241.583 60.7607 242.177 60.5166 242.812 60.5166C243.447 60.5166 244.041 60.7607 244.487 61.2053L247.614 64.3238C248.057 64.7666 248.301 65.3597 248.301 65.9943C248.301 66.629 248.057 67.2223 247.614 67.6649Z"
          fill="#1E3D71"
        ></path>
        <path
          d="M193.336 10.9439C193.681 11.2888 194.134 11.461 194.586 11.461C195.04 11.461 195.494 11.2877 195.839 10.9412C196.53 10.2492 196.529 9.1284 195.837 8.43776L189.386 1.99977C188.694 1.30912 187.573 1.31 186.883 2.00223C186.192 2.69428 186.193 3.81506 186.885 4.50571L193.336 10.9439Z"
          fill="#1E3D71"
        ></path>
        <path
          d="M219.1 11.461C219.553 11.461 220.006 11.2883 220.351 10.9433L226.797 4.50511C227.489 3.81429 227.49 2.69334 226.799 2.00164C226.108 1.30994 224.987 1.30923 224.295 2.00023L217.849 8.43839C217.158 9.12921 217.157 10.2502 217.848 10.9419C218.194 11.288 218.647 11.461 219.1 11.461Z"
          fill="#1E3D71"
        ></path>
        <path
          d="M173.043 77.1494C172.358 77.8465 172.367 78.9675 173.064 79.6528L173.07 79.6578C173.414 79.996 173.86 80.1644 174.307 80.1644C174.765 80.1644 175.223 79.987 175.57 79.6339C176.256 78.9367 176.244 77.8133 175.546 77.1279C174.85 76.4425 173.729 76.4522 173.043 77.1494Z"
          fill="#1E3D71"
        ></path>
        <path
          d="M222.224 62.9217C222.493 62.9217 222.766 62.8604 223.023 62.7312C223.896 62.2909 224.247 61.2263 223.806 60.3534C223.366 59.4805 222.301 59.1296 221.429 59.5699L221.419 59.5749C220.546 60.0152 220.2 61.0773 220.64 61.9502C220.951 62.5668 221.576 62.9217 222.224 62.9217Z"
          fill="#1E3D71"
        ></path>
        <rect
          x="230"
          y="1"
          width="20"
          height="20"
          rx="10"
          fill="#FF9800"
        ></rect>
        <path
          d="M243.438 16H236.745V14.8584L240.061 11.2422C240.539 10.709 240.879 10.2646 241.079 9.90918C241.284 9.54915 241.387 9.18913 241.387 8.8291C241.387 8.35514 241.252 7.97233 240.983 7.68066C240.719 7.389 240.361 7.24316 239.91 7.24316C239.372 7.24316 238.955 7.40723 238.659 7.73535C238.363 8.06348 238.215 8.51237 238.215 9.08203H236.554C236.554 8.47591 236.69 7.93132 236.964 7.44824C237.242 6.96061 237.636 6.58236 238.146 6.31348C238.661 6.0446 239.254 5.91016 239.924 5.91016C240.89 5.91016 241.651 6.15397 242.207 6.6416C242.768 7.12467 243.048 7.7946 243.048 8.65137C243.048 9.14811 242.907 9.66992 242.624 10.2168C242.346 10.7591 241.888 11.3766 241.25 12.0693L238.816 14.6738H243.438V16Z"
          fill="white"
        ></path>
      </svg>