<svg
        width="350"
        height="90"
        viewBox="0 0 350 90"
        fill="none"
        xmlns="http://www.w3.org/2000/svg"
      >
        <g clip-path="url(#clip0)">
          <path
            d="M219.372 33.3308L209.317 7.1879C207.412 2.24584 201.861 -0.215822 196.919 1.68952C196.847 1.71724 196.775 1.74572 196.704 1.77512L146.457 22.6043C141.672 24.567 139.32 29.9827 141.153 34.8186L142.535 38.5064H139.366C134.196 38.5122 130.006 42.702 130 47.872V81.5883C130.006 86.7583 134.196 90.9481 139.366 90.9539H203.052C208.222 90.9481 212.412 86.7583 212.418 81.5883V47.872C212.415 47.3637 212.369 46.8564 212.283 46.3555L214.022 45.6512C218.85 43.6727 221.222 38.2088 219.372 33.3308ZM139.366 41.5036H203.052C206.415 41.5131 209.19 44.1398 209.383 47.4976H133.034C133.228 44.1396 136.002 41.5129 139.366 41.5036ZM154.427 32.4766L164.443 27.4671L166.502 32.6175L156.486 37.6255L154.427 32.4766ZM209.421 81.5885C209.416 85.1042 206.568 87.953 203.052 87.9571H139.366C135.85 87.953 133.001 85.1042 132.997 81.5885V62.4826H209.421V81.5885ZM209.421 59.4856H132.997V50.4946H209.421V59.4856ZM212.899 42.8822L211.333 43.5161C209.715 40.4396 206.528 38.5115 203.052 38.5066H161.427L169.076 34.6809C169.774 34.3327 170.088 33.5078 169.799 32.7838L166.62 24.8417C166.313 24.0734 165.441 23.6995 164.673 24.0067C164.634 24.0223 164.596 24.0393 164.559 24.058L151.853 30.4147C151.156 30.7634 150.842 31.5882 151.132 32.3118L153.611 38.5066H145.734L143.96 33.7743C142.702 30.4518 144.318 26.7317 147.604 25.3827L197.851 4.55353C201.21 3.16068 205.062 4.75452 206.455 8.1136C206.477 8.16586 206.498 8.21849 206.518 8.27132L216.573 34.4142C217.845 37.7661 216.216 41.5214 212.899 42.8822Z"
            fill="#1E3D71"
          ></path>
          <path
            d="M183.904 83.7435C186.696 85.3658 190.144 85.3658 192.937 83.7435C197.23 86.2379 202.733 84.7793 205.228 80.4857C207.722 76.1922 206.264 70.6893 201.97 68.1948C200.592 67.3943 199.026 66.9743 197.432 66.9781C195.853 66.9788 194.301 67.3986 192.937 68.1948C188.643 65.7004 183.14 67.1588 180.646 71.4524C178.152 75.7462 179.61 81.2489 183.904 83.7435ZM195.442 70.3409C196.08 70.106 196.753 69.9824 197.432 69.9752C200.743 69.9752 203.426 72.6589 203.426 75.9693C203.426 79.2796 200.743 81.9633 197.432 81.9633C196.753 81.9561 196.08 81.8325 195.442 81.5976C198.095 78.3142 198.095 73.6241 195.442 70.3409ZM192.937 72.0462C194.935 74.2801 194.935 77.6584 192.937 79.8923C190.939 77.6584 190.939 74.2799 192.937 72.0462ZM188.441 69.9752C189.121 69.9822 189.794 70.106 190.431 70.3409C187.778 73.6241 187.778 78.3144 190.431 81.5976C189.794 81.8325 189.121 81.9561 188.441 81.9633C185.131 81.9633 182.447 79.2796 182.447 75.9693C182.447 72.6587 185.131 69.9752 188.441 69.9752Z"
            fill="#1E3D71"
          ></path>
          <path
            d="M193.21 31.9713L194.428 34.71L208.724 28.3552L207.506 25.6166L193.21 31.9713Z"
            fill="#1E3D71"
          ></path>
          <path
            d="M204.315 19.2709L183.666 28.8018L184.921 31.5217L205.57 21.9908L204.315 19.2709Z"
            fill="#1E3D71"
          ></path>
        </g>
        <rect
          x="198"
          y="1"
          width="20"
          height="20"
          rx="10"
          fill="#FF9800"
        ></rect>
        <path
          d="M206.666 10.2646H207.678C208.188 10.2601 208.591 10.1279 208.888 9.86816C209.188 9.6084 209.339 9.23242 209.339 8.74023C209.339 8.26628 209.214 7.89941 208.963 7.63965C208.717 7.37533 208.339 7.24316 207.828 7.24316C207.382 7.24316 207.015 7.37305 206.728 7.63281C206.44 7.88802 206.297 8.22298 206.297 8.6377H204.636C204.636 8.12728 204.77 7.66243 205.039 7.24316C205.312 6.82389 205.691 6.49805 206.174 6.26562C206.661 6.02865 207.206 5.91016 207.808 5.91016C208.801 5.91016 209.58 6.16081 210.146 6.66211C210.715 7.15885 211 7.85156 211 8.74023C211 9.18685 210.856 9.6084 210.569 10.0049C210.287 10.3968 209.92 10.693 209.469 10.8936C210.016 11.0804 210.43 11.3743 210.713 11.7754C211 12.1764 211.144 12.6549 211.144 13.2109C211.144 14.1042 210.836 14.8151 210.221 15.3438C209.61 15.8724 208.806 16.1367 207.808 16.1367C206.851 16.1367 206.067 15.8815 205.456 15.3711C204.845 14.8607 204.54 14.1816 204.54 13.334H206.201C206.201 13.7715 206.347 14.127 206.639 14.4004C206.935 14.6738 207.331 14.8105 207.828 14.8105C208.343 14.8105 208.749 14.6738 209.045 14.4004C209.341 14.127 209.489 13.7305 209.489 13.2109C209.489 12.6868 209.334 12.2835 209.024 12.001C208.715 11.7184 208.254 11.5771 207.644 11.5771H206.666V10.2646Z"
          fill="white"
        ></path>
        <defs>
          <clipPath id="clip0">
            <rect
              width="90"
              height="90"
              fill="white"
              transform="translate(130 1)"
            ></rect>
          </clipPath>
        </defs>
      </svg>