<svg
    width="350"
    height="90"
    viewBox="0 0 282 90"
    fill="none"
    xmlns="http://www.w3.org/2000/svg"
    >
    <path
        d="M107.25 15.0625H110.062V17.875H107.25V15.0625Z"
        fill="#1E3D71"
    ></path>
    <path
        d="M112.875 15.0625H115.688V17.875H112.875V15.0625Z"
        fill="#1E3D71"
    ></path>
    <path
        d="M118.5 15.0625H121.312V17.875H118.5V15.0625Z"
        fill="#1E3D71"
    ></path>
    <path
        d="M125.531 29.125H108.656C108.283 29.125 107.926 29.2732 107.662 29.5369C107.398 29.8006 107.25 30.1583 107.25 30.5312V44.5938C107.25 44.9667 107.398 45.3244 107.662 45.5881C107.926 45.8518 108.283 46 108.656 46H125.531C125.904 46 126.262 45.8518 126.526 45.5881C126.789 45.3244 126.938 44.9667 126.938 44.5938V30.5312C126.938 30.1583 126.789 29.8006 126.526 29.5369C126.262 29.2732 125.904 29.125 125.531 29.125ZM124.125 43.1875H110.062V31.9375H124.125V43.1875Z"
        fill="#1E3D71"
    ></path>
    <path
        d="M132.562 29.125H138.188V31.9375H132.562V29.125Z"
        fill="#1E3D71"
    ></path>
    <path d="M141 29.125H163.5V31.9375H141V29.125Z" fill="#1E3D71"></path>
    <path
        d="M132.562 34.75H163.5V37.5625H132.562V34.75Z"
        fill="#1E3D71"
    ></path>
    <path
        d="M132.562 40.375H146.625V43.1875H132.562V40.375Z"
        fill="#1E3D71"
    ></path>
    <path
        d="M149.438 40.375H157.875V43.1875H149.438V40.375Z"
        fill="#1E3D71"
    ></path>
    <path
        d="M107.25 51.625H126.938V54.4375H107.25V51.625Z"
        fill="#1E3D71"
    ></path>
    <path
        d="M107.25 57.25H126.938V60.0625H107.25V57.25Z"
        fill="#1E3D71"
    ></path>
    <path
        d="M107.25 62.875H126.938V65.6875H107.25V62.875Z"
        fill="#1E3D71"
    ></path>
    <path
        d="M107.25 68.5H126.938V71.3125H107.25V68.5Z"
        fill="#1E3D71"
    ></path>
    <path
        d="M178.969 27.8467C177.904 27.2152 176.687 26.8846 175.449 26.89C174.211 26.8955 172.997 27.2368 171.938 27.8777V13.6562C171.938 12.5374 171.493 11.4643 170.702 10.6731C169.911 9.88197 168.838 9.4375 167.719 9.4375H103.031C101.912 9.4375 100.839 9.88197 100.048 10.6731C99.257 11.4643 98.8125 12.5374 98.8125 13.6562V78.3438C98.8125 79.4626 99.257 80.5357 100.048 81.3269C100.839 82.118 101.912 82.5625 103.031 82.5625H167.719C168.838 82.5625 169.911 82.118 170.702 81.3269C171.493 80.5357 171.938 79.4626 171.938 78.3438V54.0873L181.542 37.4514C182.473 35.836 182.724 33.9175 182.242 32.1169C181.759 30.3162 180.582 28.7805 178.969 27.8467ZM150.626 68.5H135.375V54.4375H155.497L151.786 60.8669C151.647 61.107 151.582 61.3831 151.6 61.66L151.898 66.3006L150.626 68.5ZM152.438 70.9863L153.845 68.5506L156.28 69.9569L154.874 72.3925C154.686 72.7129 154.379 72.9459 154.02 73.0408C153.661 73.1357 153.279 73.0848 152.958 72.8991C152.636 72.7135 152.401 72.4081 152.304 72.0497C152.206 71.6914 152.255 71.3091 152.438 70.9863ZM158.253 67.8475L154.684 65.7873L154.468 62.4123L161.282 66.3498L158.253 67.8475ZM162.935 64.0506L160.499 62.6444L171.046 44.3772L168.61 42.9709L158.063 61.2381L155.628 59.8319L167.581 39.1291L174.893 43.3478L162.935 64.0506ZM168.982 36.6934L169.685 35.477L176.997 39.6958L176.294 40.9136L168.982 36.6934ZM103.031 12.25H167.719C168.092 12.25 168.449 12.3982 168.713 12.6619C168.977 12.9256 169.125 13.2833 169.125 13.6562V20.7325H101.625V13.6562C101.625 13.2833 101.773 12.9256 102.037 12.6619C102.301 12.3982 102.658 12.25 103.031 12.25ZM169.125 78.3438C169.125 78.7167 168.977 79.0744 168.713 79.3381C168.449 79.6018 168.092 79.75 167.719 79.75H103.031C102.658 79.75 102.301 79.6018 102.037 79.3381C101.773 79.0744 101.625 78.7167 101.625 78.3438V23.545H169.125V30.835L157.121 51.625H133.969C133.596 51.625 133.238 51.7732 132.974 52.0369C132.711 52.3006 132.562 52.6583 132.562 53.0312V69.9062C132.562 70.2792 132.711 70.6369 132.974 70.9006C133.238 71.1643 133.596 71.3125 133.969 71.3125H149.466C149.384 72.2668 149.63 73.2205 150.162 74.0168C150.694 74.813 151.482 75.4044 152.395 75.6937C153.308 75.983 154.292 75.953 155.186 75.6086C156.08 75.2642 156.83 74.626 157.312 73.7988L159.208 70.5137L163.371 68.455C163.62 68.3306 163.827 68.1348 163.965 67.8925L169.125 58.9586V78.3438ZM179.109 36.0452L178.406 37.263L171.094 33.0442L171.797 31.8264C172.356 30.8567 173.278 30.149 174.359 29.8589C175.441 29.5688 176.593 29.7201 177.562 30.2795C178.532 30.839 179.24 31.7607 179.53 32.842C179.82 33.9232 179.669 35.0755 179.109 36.0452Z"
        fill="#1E3D71"
    ></path>
    <rect
        x="164"
        y="1"
        width="20"
        height="20"
        rx="10"
        fill="#FF9800"
    ></rect>
    <path
        d="M175.243 16H173.589V8.00879L171.148 8.84277V7.44141L175.031 6.0127H175.243V16Z"
        fill="white"
    ></path>
</svg>