<?xml version="1.0" encoding="utf-8"?>
<!-- Generator: Adobe Illustrator 24.2.0, SVG Export Plug-In . SVG Version: 6.00 Build 0)  -->
<svg version="1.1" baseProfile="tiny" id="Layer_1" xmlns="http://www.w3.org/2000/svg" xmlns:xlink="http://www.w3.org/1999/xlink"
	 x="0px" y="0px" viewBox="0 0 50 50" overflow="visible" xml:space="preserve">
<g>
	<g>
		<path fill="#FFFFFF" d="M43.2,15.1c-0.2,0-0.4,0-0.6,0.1C40.7,7,33.5,1,25,1C16.4,1,9.3,7,7.3,15.1c-0.2,0-0.3-0.1-0.5-0.1
			c-1.9,0-3.4,1.5-3.4,3.4v4.1c0,1.9,1.5,3.4,3.4,3.4c0.4,0,0.8-0.1,1.2-0.2c1,2.5,3.5,4.3,6.4,4.3c0.8,0,1.4-0.6,1.4-1.4
			c0-0.8-0.6-1.4-1.4-1.4c-2.3,0-4.1-1.8-4.1-4.1V19C10.5,10.9,17,4.4,25,4.4c8.1,0,14.8,6.8,14.8,15.1c0,0,0,0.1,0,0.1v3
			c0,1.9,1.5,3.4,3.4,3.4c1.9,0,3.4-1.5,3.4-3.4v-4.1C46.6,16.6,45.1,15.1,43.2,15.1z"/>
		<path fill="#FFFFFF" d="M36.2,34.3h-4c-0.9,0-1.7,0.4-2.3,1.2l-2.8,4c-1.1,1.6-3.4,1.6-4.5,0l-2.7-4c-0.5-0.8-1.4-1.2-2.3-1.2h-4
			c-5.1,0-9.2,4.1-9.2,9.2v4.1c0,0.8,0.6,1.4,1.4,1.4h38.3c0.8,0,1.4-0.6,1.4-1.4v-4.1C45.5,38.4,41.3,34.3,36.2,34.3z M25,30.9
			c6.3,0,11.3-5.1,11.3-11.3c0-6.3-5.1-11.3-11.3-11.3c-6.3,0-11.3,5.1-11.3,11.3C13.7,25.8,18.7,30.9,25,30.9z"/>
	</g>
</g>
</svg>
