<?xml version="1.0" encoding="utf-8"?>
<!-- Generator: Adobe Illustrator 19.2.1, SVG Export Plug-In . SVG Version: 6.00 Build 0)  -->
<svg version="1.1" xmlns="http://www.w3.org/2000/svg" xmlns:xlink="http://www.w3.org/1999/xlink" x="0px" y="0px" width="32px"
	 height="32px" viewBox="0 0 32 32" enable-background="new 0 0 32 32" xml:space="preserve">
<g id="bg" display="none">
	<g id="Layer_2" display="inline">
		<rect x="0" fill="#D4EBF4" width="32" height="32"/>
	</g>
</g>
<g id="bg_copy">
	<g id="Layer_2_copy">
	</g>
</g>
<g id="Layer_1">
	<g>
		<g>
			<path d="M14.5,16c0-0.83,0.67-1.5,1.5-1.5c0.83,0,1.5,0.67,1.5,1.5c0,0.83-0.67,1.5-1.5,1.5C15.17,17.5,14.5,16.83,14.5,16
				L14.5,16z"/>
		</g>
	</g>
	<g>
		<g>
			<g>
				<path d="M27,5v22H5V5H27 M28,4H4v24h24V4L28,4z"/>
			</g>
		</g>
		<g>
			<path d="M16,8c4.41,0,8,3.59,8,8c0,4.41-3.59,8-8,8s-8-3.59-8-8C8,11.59,11.59,8,16,8 M16,7c-4.96,0-9,4.04-9,9
				c0,4.96,4.04,9,9,9s9-4.04,9-9C25,11.04,20.96,7,16,7L16,7z"/>
		</g>
	</g>
	<g>
		<defs>
			<line id="SVGID_1_" x1="931" y1="-3547.5" x2="-251" y2="-3400.5"/>
		</defs>
		<defs>
			<line id="SVGID_2_" x1="-251" y1="3677.5" x2="931" y2="3530.5"/>
		</defs>
		<clipPath id="SVGID_3_">
			<use xlink:href="#SVGID_1_"  overflow="visible"/>
		</clipPath>
		<clipPath id="SVGID_4_" clip-path="url(#SVGID_3_)">
			<use xlink:href="#SVGID_2_"  overflow="visible"/>
		</clipPath>
	</g>
</g>
</svg>
